<?xml version="1.0" encoding="UTF-8" standalone="no"?>
<!-- Created with Inkscape (http://www.inkscape.org/) -->

<svg
   id="svg3258"
   sodipodi:docname="aircraft.svg"
   inkscape:export-ydpi="198.69991"
   inkscape:export-filename="/home/nathan/Desktop/Airplane.png"
   viewBox="0 0 511.99999 511.99999"
   sodipodi:version="0.32"
   inkscape:export-xdpi="198.69991"
   version="1.0"
   inkscape:output_extension="org.inkscape.output.svg.inkscape"
   inkscape:version="1.1.2 (0a00cf5339, 2022-02-04)"
   width="512"
   height="512"
   xmlns:inkscape="http://www.inkscape.org/namespaces/inkscape"
   xmlns:sodipodi="http://sodipodi.sourceforge.net/DTD/sodipodi-0.dtd"
   xmlns="http://www.w3.org/2000/svg"
   xmlns:svg="http://www.w3.org/2000/svg"
   xmlns:rdf="http://www.w3.org/1999/02/22-rdf-syntax-ns#"
   xmlns:cc="http://creativecommons.org/ns#"
   xmlns:dc="http://purl.org/dc/elements/1.1/">
  <defs
     id="defs8" />
  <sodipodi:namedview
     id="base"
     bordercolor="#666666"
     inkscape:pageshadow="2"
     guidetolerance="10"
     pagecolor="#ffffff"
     gridtolerance="10000"
     inkscape:window-height="1371"
     inkscape:zoom="0.78763545"
     objecttolerance="10"
     inkscape:window-y="32"
     showgrid="false"
     borderopacity="1.0"
     inkscape:current-layer="layer1"
     inkscape:cx="86.969168"
     inkscape:cy="175.20796"
     showguides="true"
     inkscape:guide-bbox="true"
     inkscape:window-x="1720"
     inkscape:window-width="1720"
     inkscape:pageopacity="0.0"
     inkscape:document-units="px"
     inkscape:pagecheckerboard="1"
     inkscape:window-maximized="0" />
  <g
     id="layer1"
     inkscape:label="Layer 1"
     inkscape:groupmode="layer"
     transform="translate(-514.66,-602.51)">
    <path
       id="path3241"
       sodipodi:nodetypes="cccczzczzcczccszsczcsz"
       style="fill:#ffffff;fill-rule:evenodd;stroke-width:1;fill-opacity:1"
       d="m 847.47565,620.98085 c -30.80576,-0.32772 -46.86408,20.72835 -51.86182,47.60145 -7.29179,53.41848 -1.3928,121.09283 -6.8002,173.36429 -65.05258,2.53984 -99.38133,4.17844 -153.29139,6.88214 -0.32773,-66.60925 -4.91582,-80.78318 -24.90679,-81.84826 -19.74518,-1.0651 -23.10432,15.4848 -23.59589,31.87084 -0.57352,16.38603 -0.40965,34.49262 -0.73738,52.35339 0,0 -9.83162,0.0819 -11.71602,3.19528 -1.80246,2.86756 -2.13018,9.09425 -0.57351,12.37146 1.31089,3.03142 12.61726,4.09651 12.61726,4.09651 0,0 0.0819,33.59138 -0.40966,50.14128 -0.49157,18.10658 0.65544,35.22998 24.49713,35.72156 23.84169,0.40965 24.57906,-36.95052 24.82486,-82.83142 71.77084,4.50616 75.78542,5.1616 153.29139,8.93038 5.07967,52.10762 -0.49159,110.19612 6.8002,155.42155 5.89897,36.1312 21.05606,58.7439 51.77988,57.7608 30.80576,-1.0651 41.70248,-18.5163 41.78441,-58.0066 0.0819,-69.80447 6.30862,-148.5394 6.30862,-148.5394 30.3961,-0.65544 72.67208,6.96407 72.83595,-23.18624 0.0819,-30.15031 -42.19405,-24.66099 -72.91788,-25.64416 0,-37.36016 -6.71828,-119.04457 -6.47249,-172.8727 0.16387,-25.15257 -10.24127,-46.3725 -41.45667,-46.78215 z" />
  </g>
  <metadata
     id="metadata5">
    <rdf:RDF>
      <cc:Work>
        <dc:format>image/svg+xml</dc:format>
        <dc:type
           rdf:resource="http://purl.org/dc/dcmitype/StillImage" />
        <cc:license
           rdf:resource="http://creativecommons.org/publicdomain/zero/1.0/" />
        <dc:publisher>
          <cc:Agent
             rdf:about="http://openclipart.org/">
            <dc:title>Openclipart</dc:title>
          </cc:Agent>
        </dc:publisher>
        <dc:title>Airplane</dc:title>
        <dc:date>2009-03-24T04:35:32</dc:date>
        <dc:description>A generic plane shape. Not drawn to scale. No guarantees on accuracy. Great for kids books.</dc:description>
        <dc:source>https://openclipart.org/detail/23076/airplane-by-chovynz-23076</dc:source>
        <dc:creator>
          <cc:Agent>
            <dc:title>chovynz</dc:title>
          </cc:Agent>
        </dc:creator>
        <dc:subject>
          <rdf:Bag>
            <rdf:li>aeroplane</rdf:li>
            <rdf:li>aircraft</rdf:li>
            <rdf:li>airplane</rdf:li>
            <rdf:li>american</rdf:li>
            <rdf:li>flight</rdf:li>
            <rdf:li>plane</rdf:li>
            <rdf:li>silhouette</rdf:li>
            <rdf:li>wing</rdf:li>
          </rdf:Bag>
        </dc:subject>
      </cc:Work>
      <cc:License
         rdf:about="http://creativecommons.org/licenses/publicdomain/">
        <cc:permits
           rdf:resource="http://creativecommons.org/ns#Reproduction" />
        <cc:permits
           rdf:resource="http://creativecommons.org/ns#Distribution" />
        <cc:permits
           rdf:resource="http://creativecommons.org/ns#DerivativeWorks" />
      </cc:License>
    </rdf:RDF>
  </metadata>
</svg>
