<?xml version="1.0" encoding="UTF-8" standalone="no"?>
<svg
   id="svg2"
   viewBox="0 0 256 256"
   version="1.0"
   sodipodi:docname="phone.svg"
   width="256"
   height="256"
   inkscape:version="1.1.2 (0a00cf5339, 2022-02-04)"
   xmlns:inkscape="http://www.inkscape.org/namespaces/inkscape"
   xmlns:sodipodi="http://sodipodi.sourceforge.net/DTD/sodipodi-0.dtd"
   xmlns="http://www.w3.org/2000/svg"
   xmlns:svg="http://www.w3.org/2000/svg"
   xmlns:rdf="http://www.w3.org/1999/02/22-rdf-syntax-ns#"
   xmlns:cc="http://creativecommons.org/ns#"
   xmlns:dc="http://purl.org/dc/elements/1.1/">
  <defs
     id="defs10" />
  <sodipodi:namedview
     id="namedview8"
     pagecolor="#505050"
     bordercolor="#ffffff"
     borderopacity="1"
     inkscape:pageshadow="0"
     inkscape:pageopacity="0"
     inkscape:pagecheckerboard="1"
     showgrid="false"
     inkscape:zoom="1.2685541"
     inkscape:cx="104.44962"
     inkscape:cy="107.99697"
     inkscape:window-width="1708"
     inkscape:window-height="1355"
     inkscape:window-x="1724"
     inkscape:window-y="40"
     inkscape:window-maximized="0"
     inkscape:current-layer="svg2" />
  <title
     id="title2888">Icon Mobile Phone</title>
  <g
     id="layer1"
     transform="matrix(4.51414,0,0,4.51414,15.1465,188.94089)"
     style="fill:#ffffff;fill-opacity:1;stroke-width:0.221526">
    <path
       id="rect2890"
       d="m 32,-7 c -1.108,0 -2,0.892 -2,2 V 1 H 16 c -1.662,0 -3,1.338 -3,3 v 41 c 0,1.662 1.338,3 3,3 h 18 c 1.662,0 3,-1.338 3,-3 V 4 C 37,2.338 35.662,1 34,1 v -6 c 0,-1.108 -0.892,-2 -2,-2 z M 16.5,4 h 17 c 0.554,0 1,0.446 1,1 v 18 c 0,0.554 -0.446,1 -1,1 h -17 c -0.554,0 -1,-0.446 -1,-1 V 5 c 0,-0.554 0.446,-1 1,-1 z m 0,22 h 3 c 0.554,0 1,0.446 1,1 v 3 c 0,0.554 -0.446,1 -1,1 h -3 c -0.554,0 -1,-0.446 -1,-1 v -3 c 0,-0.554 0.446,-1 1,-1 z m 7,0 h 3 c 0.554,0 1,0.446 1,1 v 3 c 0,0.554 -0.446,1 -1,1 h -3 c -0.554,0 -1,-0.446 -1,-1 v -3 c 0,-0.554 0.446,-1 1,-1 z m 7,0 h 3 c 0.554,0 1,0.446 1,1 v 3 c 0,0.554 -0.446,1 -1,1 h -3 c -0.554,0 -1,-0.446 -1,-1 v -3 c 0,-0.554 0.446,-1 1,-1 z m -14,7 h 3 c 0.554,0 1,0.446 1,1 v 3 c 0,0.554 -0.446,1 -1,1 h -3 c -0.554,0 -1,-0.446 -1,-1 v -3 c 0,-0.554 0.446,-1 1,-1 z m 7,0 h 3 c 0.554,0 1,0.446 1,1 v 3 c 0,0.554 -0.446,1 -1,1 h -3 c -0.554,0 -1,-0.446 -1,-1 v -3 c 0,-0.554 0.446,-1 1,-1 z m 7,0 h 3 c 0.554,0 1,0.446 1,1 v 3 c 0,0.554 -0.446,1 -1,1 h -3 c -0.554,0 -1,-0.446 -1,-1 v -3 c 0,-0.554 0.446,-1 1,-1 z m -14,7 h 3 c 0.554,0 1,0.446 1,1 v 3 c 0,0.554 -0.446,1 -1,1 h -3 c -0.554,0 -1,-0.446 -1,-1 v -3 c 0,-0.554 0.446,-1 1,-1 z m 7,0 h 3 c 0.554,0 1,0.446 1,1 v 3 c 0,0.554 -0.446,1 -1,1 h -3 c -0.554,0 -1,-0.446 -1,-1 v -3 c 0,-0.554 0.446,-1 1,-1 z m 7,0 h 3 c 0.554,0 1,0.446 1,1 v 3 c 0,0.554 -0.446,1 -1,1 h -3 c -0.554,0 -1,-0.446 -1,-1 v -3 c 0,-0.554 0.446,-1 1,-1 z"
       transform="translate(0,-34)"
       style="fill:#ffffff;fill-opacity:1;stroke-width:0.221526" />
  </g>
  <metadata
     id="metadata5">
    <rdf:RDF>
      <cc:Work>
        <dc:format>image/svg+xml</dc:format>
        <dc:type
           rdf:resource="http://purl.org/dc/dcmitype/StillImage" />
        <cc:license
           rdf:resource="http://creativecommons.org/publicdomain/zero/1.0/" />
        <dc:publisher>
          <cc:Agent
             rdf:about="http://openclipart.org/">
            <dc:title>Openclipart</dc:title>
          </cc:Agent>
        </dc:publisher>
        <dc:title>icon_mobile_phone</dc:title>
        <dc:date>2010-01-29T14:00:55</dc:date>
        <dc:description>clip art, clipart, icon, icon, image, letter, letter, mailing, mailing, media, mobile, mobile, phone, phone, png, public domain, svg, unchecked, </dc:description>
        <dc:source>http://openclipart.org/detail/29119/icon_mobile_phone-by-jean_victor_balin</dc:source>
        <dc:creator>
          <cc:Agent>
            <dc:title>jean_victor_balin</dc:title>
          </cc:Agent>
        </dc:creator>
        <dc:subject>
          <rdf:Bag>
            <rdf:li>clip art</rdf:li>
            <rdf:li>clipart</rdf:li>
            <rdf:li>icon</rdf:li>
            <rdf:li>image</rdf:li>
            <rdf:li>letter</rdf:li>
            <rdf:li>mailing</rdf:li>
            <rdf:li>media</rdf:li>
            <rdf:li>mobile</rdf:li>
            <rdf:li>phone</rdf:li>
            <rdf:li>png</rdf:li>
            <rdf:li>public domain</rdf:li>
            <rdf:li>svg</rdf:li>
            <rdf:li>unchecked</rdf:li>
          </rdf:Bag>
        </dc:subject>
      </cc:Work>
      <cc:License
         rdf:about="http://creativecommons.org/licenses/publicdomain/">
        <cc:permits
           rdf:resource="http://creativecommons.org/ns#Reproduction" />
        <cc:permits
           rdf:resource="http://creativecommons.org/ns#Distribution" />
        <cc:permits
           rdf:resource="http://creativecommons.org/ns#DerivativeWorks" />
      </cc:License>
    </rdf:RDF>
  </metadata>
</svg>
