<?xml version="1.0" encoding="UTF-8" standalone="no"?>
<!-- Svg Vector Icons : http://www.onlinewebfonts.com/icon -->

<svg
   version="1.1"
   x="0px"
   y="0px"
   viewBox="0 0 512 512"
   enable-background="new 0 0 1000 1000"
   xml:space="preserve"
   id="svg10"
   sodipodi:docname="drone.svg"
   width="512"
   height="512"
   inkscape:version="1.1.2 (0a00cf5339, 2022-02-04)"
   xmlns:inkscape="http://www.inkscape.org/namespaces/inkscape"
   xmlns:sodipodi="http://sodipodi.sourceforge.net/DTD/sodipodi-0.dtd"
   xmlns="http://www.w3.org/2000/svg"
   xmlns:svg="http://www.w3.org/2000/svg"
   xmlns:rdf="http://www.w3.org/1999/02/22-rdf-syntax-ns#"
   xmlns:cc="http://creativecommons.org/ns#"><defs
   id="defs14" /><sodipodi:namedview
   id="namedview12"
   pagecolor="#505050"
   bordercolor="#ffffff"
   borderopacity="1"
   inkscape:pageshadow="0"
   inkscape:pageopacity="0"
   inkscape:pagecheckerboard="1"
   showgrid="false"
   inkscape:zoom="0.873"
   inkscape:cx="453.03551"
   inkscape:cy="500.57274"
   inkscape:window-width="1720"
   inkscape:window-height="1371"
   inkscape:window-x="1720"
   inkscape:window-y="32"
   inkscape:window-maximized="0"
   inkscape:current-layer="g6" />
<metadata
   id="metadata2"> Svg Vector Icons : http://www.onlinewebfonts.com/icon <rdf:RDF><cc:Work
     rdf:about=""><cc:license
       rdf:resource="http://creativecommons.org/publicdomain/zero/1.0/" /></cc:Work><cc:License
     rdf:about="http://creativecommons.org/publicdomain/zero/1.0/"><cc:permits
       rdf:resource="http://creativecommons.org/ns#Reproduction" /><cc:permits
       rdf:resource="http://creativecommons.org/ns#Distribution" /><cc:permits
       rdf:resource="http://creativecommons.org/ns#DerivativeWorks" /></cc:License></rdf:RDF></metadata>
<g
   id="g8"
   transform="matrix(0.47103295,0,0,0.49917929,20.48588,6.4115737)"
   style="fill:#ffffff;fill-opacity:1;stroke-width:2.06227"><g
     transform="matrix(0.1,0,0,-0.1,0,512)"
     id="g6"
     style="fill:#ffffff;fill-opacity:1;stroke-width:2.06227"><path
       id="path4"
       style="fill:#ffffff;fill-opacity:1;stroke-width:0.0999999"
       d="M 400.5293 11.578125 C 382.10249 11.578125 369.45472 15.311131 354.45703 25.169922 C 345.78531 30.820631 332.50787 44.894094 327.17578 54.083984 C 317.87288 69.972861 314.34961 83.375318 314.34961 102.9082 C 314.34961 120.32956 315.16364 124.16377 323.47266 145.60352 C 323.92485 146.94631 302.6062 163.59848 296.73242 166.37891 C 292.7569 168.29575 291.13125 168.39062 255.99219 168.39062 C 220.85313 168.39062 219.22471 168.29575 215.25391 166.37891 C 209.38013 163.60347 188.06148 146.94631 188.51367 145.60352 C 196.82269 124.15877 197.63672 120.32956 197.63672 102.9082 C 197.63672 87.972759 196.55306 81.273686 192.21484 69.498047 C 187.97084 58.20162 181.91816 48.437079 173.33594 39.152344 C 161.23039 26.038904 148.76132 18.282762 132.32227 13.785156 C 123.39148 11.199408 105.41332 10.530644 96.378906 12.347656 C 77.952097 16.081517 63.317481 24.31244 50.039062 38.673828 C 38.385707 51.118368 30.885327 65.290042 26.820312 82.421875 C 24.653561 91.516922 24.653561 114.29948 26.820312 123.39453 C 31.064319 141.20026 38.385621 154.89242 50.943359 168.00586 C 60.067268 177.58012 68.921992 183.7999 79.939453 188.49219 C 91.05112 193.08963 97.373491 194.23828 111.4668 194.23828 C 127.90585 194.23828 131.52224 193.37388 151.75781 184.56836 C 153.02018 184.08915 168.73848 206.68148 171.35742 212.90625 C 173.25568 217.11932 173.25586 218.74841 173.25586 256.08203 C 173.25586 293.41565 173.25568 295.04279 171.35742 299.25586 C 168.73848 305.47563 153.02018 328.07296 151.75781 327.59375 C 131.52224 318.78823 127.91056 317.92383 111.4668 317.92383 C 93.039988 317.92383 80.39222 321.65879 65.394531 331.51758 C 56.722815 337.16829 43.443421 351.2398 38.111328 360.42969 C 28.808427 376.31856 25.285156 389.72102 25.285156 409.25391 C 25.285156 424.57372 26.369751 430.98882 31.160156 443.62305 C 39.65288 466.12106 58.441509 485.83769 79.939453 494.83789 C 91.05112 499.43533 97.373491 500.58398 111.4668 500.58398 C 129.89361 500.58398 142.53942 496.85098 157.53711 486.99219 C 166.20883 481.34148 179.48822 467.26802 184.82031 458.07812 C 194.12321 442.18925 197.64648 428.78679 197.64648 409.25391 C 197.64648 391.83255 196.83051 387.99943 188.52148 366.55469 C 188.06929 365.21689 209.20962 348.65411 214.7207 346.06836 C 220.23179 343.48261 228.08837 342.42939 236.12891 343.29297 C 244.80062 344.25139 267.20328 344.25139 275.875 343.29297 C 283.91553 342.43438 291.77212 343.48261 297.2832 346.06836 C 299.44995 347.12163 306.40851 351.90818 312.55078 356.69531 C 321.31199 363.49413 323.75067 365.79025 323.20898 367.0332 C 315.98334 384.5544 313.36055 398.053 314.08594 413.5625 C 315.25881 437.87752 323.75029 457.50552 340.37305 474.83203 C 352.1159 486.99204 365.12677 494.64911 381.20312 498.95703 C 389.78535 501.25326 411.28301 501.25326 419.86523 498.95703 C 436.30428 494.55427 449.49406 486.70281 461.59961 473.96875 C 473.61566 461.13984 481.02047 447.16159 485.17969 429.74023 C 487.34644 420.64519 487.34644 397.86262 485.17969 388.76758 C 481.11467 371.7256 473.88843 357.94367 462.41406 345.49414 C 446.06451 327.8781 427.54362 318.88271 404.59961 317.63477 C 389.96462 316.87102 377.22662 319.64728 360.69336 327.30469 C 359.52049 327.87874 357.35021 325.29255 350.93945 316.00781 C 346.42225 309.49851 341.90404 302.1263 340.91016 299.83008 C 338.47021 293.98968 337.56562 285.75716 338.29102 276.66211 C 339.1954 266.80332 339.1954 245.35792 338.29102 235.49414 C 337.57034 226.39909 338.47021 218.16852 340.91016 212.32812 C 343.35011 206.48773 358.97982 184.08524 360.24219 184.56445 C 380.47776 193.36998 384.09025 194.23242 400.5293 194.23242 C 418.95611 194.23242 431.60387 190.49942 446.60156 180.64062 C 455.27328 174.98992 468.55072 160.91841 473.88281 151.72852 C 483.18571 135.83465 486.70898 122.43024 486.70898 102.90234 C 486.70898 83.658982 483.81727 72.173238 474.69336 55.515625 C 469.36598 45.751678 455.90446 31.200008 446.60156 25.169922 C 431.51438 15.311131 418.96082 11.578125 400.5293 11.578125 z M 97.914062 27.662109 C 105.14442 26.039777 121.58421 26.51869 128.63086 28.525391 C 137.66527 31.205983 143.80628 33.981543 150.49023 38.673828 C 179.21853 58.58609 190.68851 95.249787 179.03516 129.52344 C 177.22639 134.69493 175.96517 137.18234 175.33398 136.70312 C 174.7028 136.31876 165.0356 128.95005 153.74023 120.23438 C 135.67141 106.44704 133.14258 104.1506 133.14258 101.94922 C 133.14258 100.51158 132.69013 98.025988 132.14844 96.298828 C 131.15456 93.428547 131.33453 93.138277 137.75 85.865234 C 145.79053 76.770188 151.84336 68.343842 154.09961 62.792969 C 155.72467 59.153952 155.72365 58.485144 154.55078 57.242188 C 153.37791 55.999231 152.74162 56.000488 149.3125 57.722656 C 144.07461 60.113725 136.12519 66.527838 127.54297 75.048828 C 120.68002 81.84765 120.40571 82.037643 117.69727 80.984375 C 110.37741 78.303782 102.79507 80.505233 96.558594 87.109375 C 90.326828 93.713517 88.247897 101.75447 90.777344 109.51172 C 91.771223 112.382 91.588493 112.67227 85.177734 119.94531 C 77.137202 129.04036 71.084373 137.4667 68.828125 143.01758 C 67.203061 146.6566 67.202128 147.32432 68.375 148.57227 C 69.547872 149.81522 70.184161 149.81592 73.613281 148.09375 C 78.851168 145.70268 86.802545 139.28857 95.384766 130.76758 C 102.24772 123.96876 102.52123 123.77876 105.23438 124.83203 C 106.85944 125.40609 109.20868 125.88477 110.56055 125.88477 C 112.6378 125.88477 114.80648 128.56655 127.81641 147.61523 C 136.03593 159.67541 142.99162 169.9179 143.34961 170.5918 C 143.8018 171.2607 141.45136 172.60377 136.57617 174.51562 C 104.23505 186.86532 69.639114 174.70558 50.849609 144.26562 C 33.595672 116.40643 35.944807 79.166487 56.359375 53.603516 C 67.197843 40.105708 81.022821 31.490815 97.914062 27.662109 z M 386.99609 27.675781 C 394.21232 26.038473 410.65647 26.51869 417.70312 28.525391 C 431.43374 32.548776 442.18262 38.957389 451.49023 48.916016 C 479.67214 78.786904 479.67214 126.93771 451.49023 156.80859 C 434.68849 174.70916 410.47791 182.75261 387.71289 178.16016 C 378.86218 176.34314 367.83941 171.9346 368.6543 170.50195 C 368.92279 169.9279 375.96912 159.68517 384.19336 147.625 C 397.20329 128.67116 399.37001 125.89453 401.44727 125.89453 C 402.80384 125.89453 405.14952 125.41585 406.7793 124.8418 C 409.48774 123.78853 409.76205 123.98351 416.625 130.77734 C 425.20722 139.29833 433.1586 145.71245 438.39648 148.10352 C 441.83031 149.82568 442.45994 149.82499 443.63281 148.58203 C 444.80568 147.33907 444.8067 146.66636 443.18164 143.02734 C 440.92539 137.47647 434.87256 129.05012 426.83203 119.95508 C 420.41656 112.68204 420.23659 112.39177 421.23047 109.52148 C 423.75992 101.76923 421.68294 93.728274 415.45117 87.119141 C 409.21941 80.514999 401.63235 78.313548 394.3125 80.994141 C 391.60406 82.047409 391.32975 81.857416 384.4668 75.058594 C 375.88458 66.537603 367.9332 60.123491 362.69531 57.732422 C 359.26148 56.010253 358.63186 56.01095 357.45898 57.253906 C 356.28611 58.496863 356.28509 59.170662 357.91016 62.804688 C 360.1664 68.355561 366.21923 76.779953 374.25977 85.875 C 380.67523 93.148042 380.85521 93.438313 379.86133 96.308594 C 379.31964 98.030762 378.86719 100.52135 378.86719 101.95898 C 378.86719 104.16037 376.33629 106.45681 358.45117 120.24414 C 347.16051 128.85998 337.49527 136.23282 336.85938 136.61719 C 335.4133 137.57561 331.34898 126.37442 329.54492 116.51562 C 325.5694 94.591671 331.5318 71.040498 345.44141 53.619141 C 356.27987 40.121333 370.10485 31.504486 386.99609 27.675781 z M 256 230.89453 A 25.105513 25.105515 0 0 1 281.10547 256 A 25.105513 25.105515 0 0 1 256 281.10547 A 25.105513 25.105515 0 0 1 230.89453 256 A 25.105513 25.105515 0 0 1 256 230.89453 z M 98.996094 333.9043 C 107.24057 332.32892 115.80142 332.28564 124.29297 334.00781 C 133.59587 335.92466 144.16415 340.23314 143.25977 341.76562 C 142.89707 342.43453 135.94643 352.67725 127.81641 364.64258 C 114.80648 383.59642 112.6378 386.27734 110.56055 386.27734 C 109.20397 386.27734 106.85944 386.75602 105.23438 387.33008 C 102.52594 388.38335 102.25243 388.19335 95.384766 381.39453 C 86.802545 372.87354 78.851168 366.45943 73.613281 364.06836 C 70.179451 362.34619 69.547872 362.34689 68.375 363.58984 C 67.202128 364.8328 67.203061 365.5066 68.828125 369.14062 C 71.084373 374.6915 77.137202 383.11784 85.177734 392.21289 C 91.593203 399.49092 91.771223 399.77425 90.777344 402.64453 C 85.355754 419.01761 102.24738 436.91938 117.69727 431.17383 C 120.40571 430.12056 120.68002 430.31055 127.54297 437.10938 C 136.12519 445.63037 144.07461 452.04448 149.3125 454.43555 C 152.74633 456.15772 153.37791 456.15702 154.55078 454.91406 C 155.72365 453.67111 155.72467 452.99731 154.09961 449.36328 C 151.84336 443.80742 145.79053 435.38606 137.75 426.29102 C 131.33453 419.01797 131.15456 418.7277 132.14844 415.85742 C 132.69013 414.13525 133.14258 411.64467 133.14258 410.20703 C 133.14258 408.00565 135.76091 405.70921 153.74023 391.92188 C 165.03089 383.2112 174.69774 375.7446 175.24414 375.45508 C 176.60072 374.5915 180.75419 386.27276 182.46875 395.65234 C 186.80696 419.77768 179.21546 445.43451 162.32422 463.24023 C 138.29683 488.71335 100.53852 493.02203 72.441406 473.49414 C 43.986306 453.67672 32.332387 417.20092 43.623047 383.2168 C 52.363063 357.15215 74.262669 338.63043 98.996094 333.9043 z M 386.98242 334.01367 C 394.21278 332.38635 410.65647 332.8594 417.70312 334.87109 C 431.43374 338.88949 442.18262 345.31004 451.49023 355.26367 C 475.15964 380.34743 479.49313 419.02341 461.9707 449.08398 C 440.82603 485.65386 395.02767 496.7559 361.51367 473.49414 C 332.78537 453.58188 321.31539 416.91623 332.96875 382.64258 C 334.77752 377.47108 336.04069 374.98563 336.67188 375.46484 C 337.30306 375.84921 346.96865 383.21792 358.35352 391.93359 C 376.33284 405.72093 378.86133 408.01542 378.86133 410.2168 C 378.86133 411.65443 379.31378 414.14198 379.85547 415.86914 C 380.84935 418.73942 380.67109 419.02728 373.98242 426.58984 C 366.12559 435.39537 359.70972 444.68592 357.54297 449.94727 C 356.36539 453.10707 356.27554 453.77572 357.45312 454.92383 C 358.626 456.16678 359.26229 456.16748 362.69141 454.44531 C 367.934 452.05424 375.88067 445.64013 384.46289 437.11914 C 391.32584 430.32032 391.5982 430.13033 394.30664 431.18359 C 401.62649 433.86419 409.21079 431.66274 415.44727 425.05859 C 421.67903 418.45445 423.75601 410.41154 421.22656 402.6543 C 420.23268 399.78402 420.41266 399.4957 426.82812 392.22266 C 434.86866 383.12761 440.91953 374.70126 443.17578 369.15039 C 444.80084 365.51137 444.80178 364.84257 443.62891 363.59961 C 442.54553 362.35665 441.91523 362.4504 438.93359 363.69336 C 433.9642 365.98958 425.2024 372.78892 416.88867 381.11523 C 409.75252 388.19859 409.48463 388.39311 406.77148 387.33984 C 405.14642 386.76579 402.79603 386.28711 401.43945 386.28711 C 399.3622 386.28711 397.19352 383.5107 384.18359 364.45703 C 375.96407 352.4917 368.91773 342.24897 368.64453 341.66992 C 367.92385 340.33212 378.4002 336.02536 386.98242 334.01367 z "
       transform="matrix(21.229937,0,0,-20.032882,-434.91395,5248.4423)" /></g></g>
</svg>
