<?xml version="1.0" encoding="UTF-8" standalone="no"?>
<svg
   xml:space="preserve"
   version="1.0"
   viewBox="0 0 512 512.00001"
   id="svg18"
   sodipodi:docname="trafficamera.svg"
   width="512"
   height="512"
   inkscape:version="1.1.2 (0a00cf5339, 2022-02-04)"
   xmlns:inkscape="http://www.inkscape.org/namespaces/inkscape"
   xmlns:sodipodi="http://sodipodi.sourceforge.net/DTD/sodipodi-0.dtd"
   xmlns="http://www.w3.org/2000/svg"
   xmlns:svg="http://www.w3.org/2000/svg"
   xmlns:rdf="http://www.w3.org/1999/02/22-rdf-syntax-ns#"
   xmlns:cc="http://creativecommons.org/ns#"
   xmlns:dc="http://purl.org/dc/elements/1.1/"><defs
   id="defs22" /><sodipodi:namedview
   id="namedview20"
   pagecolor="#505050"
   bordercolor="#ffffff"
   borderopacity="1"
   inkscape:pageshadow="0"
   inkscape:pageopacity="0"
   inkscape:pagecheckerboard="1"
   showgrid="false"
   inkscape:zoom="0.67535986"
   inkscape:cx="127.33952"
   inkscape:cy="202.85482"
   inkscape:window-width="1720"
   inkscape:window-height="1371"
   inkscape:window-x="1720"
   inkscape:window-y="32"
   inkscape:window-maximized="0"
   inkscape:current-layer="svg18" />
	
	<path
   d="M 261.20657,94.137133 H 87.863554 c -26.714396,0 -48.371939,21.476547 -48.371939,47.965247 v 227.81536 c 0,26.47976 21.657543,47.95406 48.371939,47.95406 H 261.20657 c 26.72557,0 48.37865,-21.4743 48.37865,-47.95406 V 142.10238 c 0,-26.49764 -21.65308,-47.974184 -48.37865,-47.974184 z M 147.47766,384.2749 c -37.5387,0 -67.969199,-30.41262 -67.969199,-67.95355 0,-37.54093 30.430499,-67.96696 67.969199,-67.96696 37.53423,0 67.96473,30.42603 67.96473,67.96696 -0.002,37.54093 -30.4305,67.95355 -67.96473,67.95355 z M 232.6263,191.84411 c -20.79275,0 -37.65712,-16.86437 -37.65712,-37.66607 0,-20.80616 16.86437,-37.66606 37.65712,-37.66606 20.82628,0 37.67501,16.86213 37.67501,37.66606 0,20.8017 -16.84873,37.66607 -37.67501,37.66607 z"
   id="path4"
   style="stroke-width:0.999996;fill:#ffffff;fill-opacity:1" />
	<circle
   cy="154.17581"
   cx="232.6263"
   r="21.291071"
   id="circle6"
   style="stroke-width:0.999996;fill:#ffffff;fill-opacity:1" />
	<circle
   cy="316.11798"
   cx="147.38156"
   r="46.877007"
   id="circle8"
   style="stroke-width:0.999996;fill:#ffffff;fill-opacity:1" />
	<rect
   y="150.78372"
   width="19.992779"
   x="323.64072"
   height="183.99078"
   id="rect10"
   style="stroke-width:0.999996;fill:#ffffff;fill-opacity:1" />
	<rect
   y="160.21365"
   width="19.992779"
   x="358.65659"
   height="174.56085"
   id="rect12"
   style="stroke-width:0.999996;fill:#ffffff;fill-opacity:1" />
	<polygon
   points="188.3,148.06 188.55,148.06 188.55,126.07 214.99,126.07 214.99,79.89 188.55,79.89 188.55,66.341 179.6,66.341 179.6,139 148.36,139 148.36,148.06 179.6,148.06 "
   id="polygon14"
   transform="matrix(2.2345793,0,0,2.2345793,-7.90381,38.337455)"
   style="stroke-width:0.447512;fill:#ffffff;fill-opacity:1" />
<metadata
   id="metadata16"><rdf:RDF><cc:Work><dc:format>image/svg+xml</dc:format><dc:type
         rdf:resource="http://purl.org/dc/dcmitype/StillImage" /><cc:license
         rdf:resource="http://creativecommons.org/publicdomain/zero/1.0/" /><dc:publisher><cc:Agent
           rdf:about="http://openclipart.org/"><dc:title>Openclipart</dc:title></cc:Agent></dc:publisher><dc:title>UK Speed Camera Sign</dc:title><dc:date>2006-12-26T00:00:00</dc:date><dc:description>Speed camera sign.</dc:description><dc:source>http://openclipart.org/detail/3459/-by--3459</dc:source><dc:creator><cc:Agent><dc:title>earlyswerver</dc:title></cc:Agent></dc:creator><dc:subject><rdf:Bag><rdf:li>b_w</rdf:li><rdf:li>camera</rdf:li><rdf:li>clip art</rdf:li><rdf:li>clipart</rdf:li><rdf:li>sign</rdf:li><rdf:li>symbol</rdf:li><rdf:li>warning</rdf:li></rdf:Bag></dc:subject></cc:Work><cc:License
       rdf:about="http://creativecommons.org/licenses/publicdomain/"><cc:permits
         rdf:resource="http://creativecommons.org/ns#Reproduction" /><cc:permits
         rdf:resource="http://creativecommons.org/ns#Distribution" /><cc:permits
         rdf:resource="http://creativecommons.org/ns#DerivativeWorks" /></cc:License></rdf:RDF></metadata></svg>
