<?xml version="1.0" encoding="UTF-8" standalone="no"?>
<svg
   version="1.1"
   x="0px"
   y="0px"
   viewBox="0 0 512 512"
   enable-background="new 0 0 100 100"
   xml:space="preserve"
   id="svg6"
   sodipodi:docname="weather.svg"
   width="512"
   height="512"
   inkscape:version="1.1.2 (0a00cf5339, 2022-02-04)"
   xmlns:inkscape="http://www.inkscape.org/namespaces/inkscape"
   xmlns:sodipodi="http://sodipodi.sourceforge.net/DTD/sodipodi-0.dtd"
   xmlns="http://www.w3.org/2000/svg"
   xmlns:svg="http://www.w3.org/2000/svg"><defs
     id="defs10" /><sodipodi:namedview
     id="namedview8"
     pagecolor="#505050"
     bordercolor="#ffffff"
     borderopacity="1"
     inkscape:pageshadow="0"
     inkscape:pageopacity="0"
     inkscape:pagecheckerboard="1"
     showgrid="false"
     inkscape:zoom="0.97542738"
     inkscape:cx="-580.77107"
     inkscape:cy="67.662649"
     inkscape:window-width="3424"
     inkscape:window-height="1355"
     inkscape:window-x="8"
     inkscape:window-y="40"
     inkscape:window-maximized="0"
     inkscape:current-layer="g4" /><g
     id="g4"
     transform="matrix(6.6856396,0,0,6.6856396,-79.598954,-187.62611)"
     style="stroke-width:0.149574;fill:#ffffff;fill-opacity:1"><path
       d="m 75.610385,67.73032 c 0.154,-0.969 1.764507,-6.236736 1.477253,-9.555619 -0.888763,-10.26861 -10.792842,-13.152627 -17.557653,-13.152627 -8.104,0 -14.981,5.177 -17.562,12.393 -1.916,-1.064 -2.40963,-2.708542 -8.148874,-2.560592 -6.549824,0.168847 -10.263126,5.573592 -11.383126,11.802592 -4.718,1.104 -8.239,5.312 -8.239,10.365 0,5.891 4.776,10.666 10.667,10.666 v 0 h 50.666 v 0 0 c 5.891,0 10.667,-4.775 10.667,-10.666 0,-5.058 -2.536812,-9.291754 -10.5866,-9.291754 z"
       id="path2"
       style="fill:#ffffff;fill-opacity:1;stroke-width:0.149574"
       sodipodi:nodetypes="csscscsscccssc" /></g></svg>
