<?xml version="1.0" encoding="UTF-8" standalone="no"?>
<!-- Created with Inkscape (http://www.inkscape.org/) -->

<svg
   width="1024mm"
   height="1024mm"
   viewBox="0 0 1024 1024"
   version="1.1"
   id="svg5"
   inkscape:version="1.1.2 (0a00cf5339, 2022-02-04)"
   sodipodi:docname="question.svg"
   xmlns:inkscape="http://www.inkscape.org/namespaces/inkscape"
   xmlns:sodipodi="http://sodipodi.sourceforge.net/DTD/sodipodi-0.dtd"
   xmlns="http://www.w3.org/2000/svg"
   xmlns:svg="http://www.w3.org/2000/svg">
  <sodipodi:namedview
     id="namedview7"
     pagecolor="#505050"
     bordercolor="#ffffff"
     borderopacity="1"
     inkscape:pageshadow="0"
     inkscape:pageopacity="0"
     inkscape:pagecheckerboard="1"
     inkscape:document-units="mm"
     showgrid="false"
     inkscape:zoom="0.098971006"
     inkscape:cx="2177.4054"
     inkscape:cy="2829.1114"
     inkscape:window-width="3424"
     inkscape:window-height="1355"
     inkscape:window-x="8"
     inkscape:window-y="40"
     inkscape:window-maximized="0"
     inkscape:current-layer="text4936" />
  <defs
     id="defs2">
    <rect
       x="101.56385"
       y="71.022237"
       width="3620.0008"
       height="3675.974"
       id="rect4938" />
  </defs>
  <g
     inkscape:label="Layer 1"
     inkscape:groupmode="layer"
     id="layer1">
    <g
       aria-label="?"
       transform="matrix(1.9055415,0,0,1.9055415,21.200099,-341.4063)"
       id="text4936"
       style="font-weight:200;font-size:26.6667px;line-height:1.25;font-family:Lato;-inkscape-font-specification:'Lato, Ultra-Light';letter-spacing:0px;word-spacing:0px;white-space:pre;shape-inside:url(#rect4938);stroke-width:0.138849;fill:#ffffff;fill-opacity:1">
      <path
         d="m 121.8978,249.68824 c 8.22223,-6.88889 17.11112,-13.33334 26.66668,-19.33334 9.77778,-6.00001 20.22223,-11.22223 31.33334,-15.66668 11.11112,-4.66667 23.00002,-8.22222 35.66669,-10.66667 12.88889,-2.66667 26.77779,-4 41.66669,-4 20.88889,0 39.66668,2.77778 56.33336,8.33333 16.88889,5.55556 31.22223,13.55557 43.00002,24.00002 11.77778,10.22223 20.77778,22.66668 27.00001,37.33335 6.44445,14.44445 9.66667,30.55557 9.66667,48.33335 0,16.8889 -2.33333,31.55558 -7,44.00003 -4.66667,12.22223 -10.55556,22.8889 -17.66668,32.00001 -7.11111,9.11112 -15,17.00001 -23.66667,23.66668 -8.44445,6.66667 -16.55557,12.8889 -24.33335,18.66668 -7.55556,5.55555 -14.22223,11.11111 -20.00001,16.66667 -5.55556,5.55556 -9.11112,11.77779 -10.66667,18.66668 l -9.33334,46.66669 h -70.6667 l -7.33334,-53.6667 c -1.77778,-10.88889 -0.66667,-20.33334 3.33334,-28.33334 4,-8.22223 9.44445,-15.55556 16.33334,-22.00001 7.11111,-6.66667 15.00001,-12.8889 23.66668,-18.66668 8.66667,-6 16.77778,-12.33334 24.33334,-19.00001 7.55556,-6.88889 13.8889,-14.44445 19.00001,-22.66668 5.33334,-8.44445 8.00001,-18.44445 8.00001,-30.00001 0,-13.33334 -4.44445,-23.8889 -13.33334,-31.66668 -8.66667,-8.00001 -20.66668,-12.00001 -36.00002,-12.00001 -11.77779,0 -21.66668,1.22222 -29.66668,3.66667 -19.01826,6.18203 -35.37823,16.17055 -53.03944,26.41672 0,0 -29.78662,-39.99492 -43.29394,-60.75007 z m 61.33336,389.00019 c 0,-8.00001 1.44445,-15.44446 4.33334,-22.33335 3.11111,-6.88889 7.22222,-12.88889 12.33333,-18 5.33334,-5.11112 11.55557,-9.11112 18.66668,-12.00001 7.11111,-3.11111 14.88889,-4.66667 23.33334,-4.66667 8.22223,0 15.8889,1.55556 23.00002,4.66667 7.11111,2.88889 13.33334,6.88889 18.66667,12.00001 5.33334,5.11111 9.44445,11.11111 12.33334,18 3.11111,6.88889 4.66667,14.33334 4.66667,22.33335 0,8 -1.55556,15.55556 -4.66667,22.66668 -2.88889,6.88889 -7,12.88889 -12.33334,18 -5.33333,5.11112 -11.55556,9.11112 -18.66667,12.00001 -7.11112,2.88889 -14.77779,4.33334 -23.00002,4.33334 -8.44445,0 -16.22223,-1.44445 -23.33334,-4.33334 -7.11111,-2.88889 -13.33334,-6.88889 -18.66668,-12.00001 -5.11111,-5.11111 -9.22222,-11.11111 -12.33333,-18 -2.88889,-7.11112 -4.33334,-14.66668 -4.33334,-22.66668 z"
         style="font-weight:900;font-size:666.667px;-inkscape-font-specification:'Lato, Heavy';fill:#ffffff;fill-opacity:1;stroke-width:0.138849"
         id="path10170"
         sodipodi:nodetypes="ccccscccscsccccccccccccscscccscccscscscssssccs" />
    </g>
  </g>
</svg>
